<svg xmlns="http://www.w3.org/2000/svg" id="mermaid-1544096248258" width="100%" height="100%" style="max-width:1050px" viewBox="-50 -10 1050 848"><style>#mermaid-1544096248258 .actor{stroke:#ccf;fill:#ececff}#mermaid-1544096248258 text.actor{fill:#000;stroke:none}#mermaid-1544096248258 .actor-line{stroke:gray}#mermaid-1544096248258 .messageLine0{marker-end:&quot;url(#arrowhead)&quot;}#mermaid-1544096248258 .messageLine0,#mermaid-1544096248258 .messageLine1{stroke-width:1.5;stroke-dasharray:&quot;2 2&quot;;stroke:#333}#mermaid-1544096248258 #arrowhead{fill:#333}#mermaid-1544096248258 #crosshead path{fill:#333!important;stroke:#333!important}#mermaid-1544096248258 .messageText{fill:#333;stroke:none}#mermaid-1544096248258 .note{stroke:#aa3;fill:#fff5ad}#mermaid-1544096248258 .noteText{fill:#000;stroke:none;font-family:trebuchet ms,verdana,arial;font-size:14px}</style><style>#mermaid-1544096248258{color:#000;font:400 16px &quot;Times New Roman&quot;}</style><g><line id="actor0" x1="75" x2="75" y1="5" y2="837" stroke="#999" stroke-width=".5" class="actor-line"/><rect width="150" height="65" x="0" y="0" fill="#eaeaea" stroke="#666" class="actor" rx="3" ry="3"/><text x="75" y="32.5" alignment-baseline="central" class="actor" dominant-baseline="central" style="text-anchor:middle"><tspan x="75" dy="0">Chaingear&apos;s ERC721</tspan></text></g><g><line id="actor1" x1="275" x2="275" y1="5" y2="837" stroke="#999" stroke-width=".5" class="actor-line"/><rect width="150" height="65" x="200" y="0" fill="#eaeaea" stroke="#666" class="actor" rx="3" ry="3"/><text x="275" y="32.5" alignment-baseline="central" class="actor" dominant-baseline="central" style="text-anchor:middle"><tspan x="275" dy="0">User 1</tspan></text></g><g><line id="actor2" x1="475" x2="475" y1="5" y2="837" stroke="#999" stroke-width=".5" class="actor-line"/><rect width="150" height="65" x="400" y="0" fill="#eaeaea" stroke="#666" class="actor" rx="3" ry="3"/><text x="475" y="32.5" alignment-baseline="central" class="actor" dominant-baseline="central" style="text-anchor:middle"><tspan x="475" dy="0">Chaingear</tspan></text></g><g><line id="actor3" x1="675" x2="675" y1="5" y2="837" stroke="#999" stroke-width=".5" class="actor-line"/><rect width="150" height="65" x="600" y="0" fill="#eaeaea" stroke="#666" class="actor" rx="3" ry="3"/><text x="675" y="32.5" alignment-baseline="central" class="actor" dominant-baseline="central" style="text-anchor:middle"><tspan x="675" dy="0">Database, ID 0</tspan></text></g><g><line id="actor4" x1="875" x2="875" y1="5" y2="837" stroke="#999" stroke-width=".5" class="actor-line"/><rect width="150" height="65" x="800" y="0" fill="#eaeaea" stroke="#666" class="actor" rx="3" ry="3"/><text x="875" y="32.5" alignment-baseline="central" class="actor" dominant-baseline="central" style="text-anchor:middle"><tspan x="875" dy="0">User 2</tspan></text></g><defs><marker id="arrowhead" markerHeight="4" markerWidth="6" orient="auto" refX="5" refY="2"><path d="M 0,0 V 4 L6,2 Z"/></marker></defs><defs><marker id="crosshead" markerHeight="8" markerWidth="15" orient="auto" refX="16" refY="4"><path fill="#000" stroke="#000" stroke-width="1" d="M 9,2 V 6 L16,4 Z" style="stroke-dasharray:0,0"/><path fill="none" stroke="#000" stroke-width="1" d="M 0,1 L 6,7 M 6,1 L 0,7" style="stroke-dasharray:0,0"/></marker></defs><g><text x="375" y="93" class="messageText" style="text-anchor:middle">createDatabase</text><line x1="275" x2="475" y1="100" y2="100" stroke="#000" stroke-width="2" marker-end="url(#arrowhead)" class="messageLine0" style="fill:none"/></g><g><rect width="10" height="68" x="470" y="102" fill="#f4f4f4" stroke="#666" rx="0" ry="0"/></g><g><text x="272.5" y="128" class="messageText" style="text-anchor:middle">mint token ID = 0 to = User1</text><line x1="470" x2="75" y1="135" y2="135" stroke="#000" stroke-width="2" class="messageLine1" style="stroke-dasharray:3,3;fill:none"/></g><g><text x="372.5" y="163" class="messageText" style="text-anchor:middle">return Database address, Database Token ID = 0</text><line x1="470" x2="275" y1="170" y2="170" stroke="#000" stroke-width="2" marker-end="url(#arrowhead)" class="messageLine1" style="stroke-dasharray:3,3;fill:none"/></g><g><rect width="450" height="52" x="50" y="180" fill="#EDF2AE" stroke="#666" class="note" rx="0" ry="0"/><text x="46" y="204" fill="#000" class="noteText"><tspan x="66" fill="#000">Initializing ERC721 Database token for User 1 in Chaingear,</tspan></text><text x="46" y="220" fill="#000" class="noteText"><tspan x="66" fill="#000">creates new Database and sets User 1 as Database administrator</tspan></text></g><g><text x="375" y="260" class="messageText" style="text-anchor:middle">transferFrom to = User2</text><line x1="275" x2="475" y1="267" y2="267" stroke="#000" stroke-width="2" marker-end="url(#arrowhead)" class="messageLine0" style="fill:none"/></g><g><rect width="10" height="103" x="470" y="269" fill="#f4f4f4" stroke="#666" rx="0" ry="0"/></g><g><text x="577.5" y="295" class="messageText" style="text-anchor:middle">transferAdminRights to = User2</text><line x1="480" x2="675" y1="302" y2="302" stroke="#000" stroke-width="2" marker-end="url(#arrowhead)" class="messageLine1" style="stroke-dasharray:3,3;fill:none"/></g><g><text x="272.5" y="330" class="messageText" style="text-anchor:middle">removeTokenFrom User1</text><line x1="470" x2="75" y1="337" y2="337" stroke="#000" stroke-width="2" class="messageLine1" style="stroke-dasharray:3,3;fill:none"/></g><g><text x="272.5" y="365" class="messageText" style="text-anchor:middle">addTokenTo User2</text><line x1="470" x2="75" y1="372" y2="372" stroke="#000" stroke-width="2" class="messageLine1" style="stroke-dasharray:3,3;fill:none"/></g><g><rect width="650" height="36" x="50" y="382" fill="#EDF2AE" stroke="#666" class="note" rx="0" ry="0"/><text x="46" y="406" fill="#000" class="noteText"><tspan x="66" fill="#000">Chaingear transfers token from User 1 to User 2 and also sets User 2 as administrator</tspan></text></g><g><text x="675" y="446" class="messageText" style="text-anchor:middle">getDatabase ID = 0</text><line x1="875" x2="475" y1="453" y2="453" stroke="#000" stroke-width="2" marker-end="url(#arrowhead)" class="messageLine0" style="fill:none"/></g><g><rect width="10" height="33" x="470" y="455" fill="#f4f4f4" stroke="#666" rx="0" ry="0"/></g><g><text x="677.5" y="481" class="messageText" style="text-anchor:middle">returns Database metainfromation</text><line x1="480" x2="875" y1="488" y2="488" stroke="#000" stroke-width="2" marker-end="url(#arrowhead)" class="messageLine1" style="stroke-dasharray:3,3;fill:none"/></g><g><text x="775" y="516" class="messageText" style="text-anchor:middle">updateEntryCreationFee</text><line x1="875" x2="675" y1="523" y2="523" stroke="#000" stroke-width="2" marker-end="url(#arrowhead)" class="messageLine0" style="fill:none"/></g><g><rect width="250" height="52" x="650" y="533" fill="#EDF2AE" stroke="#666" class="note" rx="0" ry="0"/><text x="646" y="557" fill="#000" class="noteText"><tspan x="666" fill="#000">User 2 as admin now may set fees</tspan></text><text x="646" y="573" fill="#000" class="noteText"><tspan x="666" fill="#000">for entry creation in Database</tspan></text></g><g><text x="675" y="613" class="messageText" style="text-anchor:middle">deleteDatabase ID = 0</text><line x1="875" x2="475" y1="620" y2="620" stroke="#000" stroke-width="2" marker-end="url(#arrowhead)" class="messageLine0" style="fill:none"/></g><g><rect width="10" height="68" x="470" y="622" fill="#f4f4f4" stroke="#666" rx="0" ry="0"/></g><g><text x="575" y="648" class="messageText" style="text-anchor:middle">transferOwnership to = User2</text><line x1="480" x2="670" y1="655" y2="655" stroke="#000" stroke-width="2" marker-end="url(#arrowhead)" class="messageLine1" style="stroke-dasharray:3,3;fill:none"/></g><g><text x="272.5" y="683" class="messageText" style="text-anchor:middle">burn ID = 0</text><line x1="470" x2="75" y1="690" y2="690" stroke="#000" stroke-width="2" marker-end="url(#arrowhead)" class="messageLine1" style="stroke-dasharray:3,3;fill:none"/></g><g><rect width="850" height="52" x="50" y="700" fill="#EDF2AE" stroke="#666" class="note" rx="0" ry="0"/><text x="46" y="724" fill="#000" class="noteText"><tspan x="66" fill="#000">User deletes Database from chaingear and burns their token and getting after that owner control to Database contract.</tspan></text><text x="46" y="740" fill="#000" class="noteText"><tspan x="66" fill="#000">Chaingear only deletes associated structure, burns token and transfers ownership.</tspan></text></g><g><rect width="150" height="65" x="0" y="772" fill="#eaeaea" stroke="#666" class="actor" rx="3" ry="3"/><text x="75" y="804.5" alignment-baseline="central" class="actor" dominant-baseline="central" style="text-anchor:middle"><tspan x="75" dy="0">Chaingear&apos;s ERC721</tspan></text></g><g><rect width="150" height="65" x="200" y="772" fill="#eaeaea" stroke="#666" class="actor" rx="3" ry="3"/><text x="275" y="804.5" alignment-baseline="central" class="actor" dominant-baseline="central" style="text-anchor:middle"><tspan x="275" dy="0">User 1</tspan></text></g><g><rect width="150" height="65" x="400" y="772" fill="#eaeaea" stroke="#666" class="actor" rx="3" ry="3"/><text x="475" y="804.5" alignment-baseline="central" class="actor" dominant-baseline="central" style="text-anchor:middle"><tspan x="475" dy="0">Chaingear</tspan></text></g><g><rect width="150" height="65" x="600" y="772" fill="#eaeaea" stroke="#666" class="actor" rx="3" ry="3"/><text x="675" y="804.5" alignment-baseline="central" class="actor" dominant-baseline="central" style="text-anchor:middle"><tspan x="675" dy="0">Database, ID 0</tspan></text></g><g><rect width="150" height="65" x="800" y="772" fill="#eaeaea" stroke="#666" class="actor" rx="3" ry="3"/><text x="875" y="804.5" alignment-baseline="central" class="actor" dominant-baseline="central" style="text-anchor:middle"><tspan x="875" dy="0">User 2</tspan></text></g></svg>