<svg xmlns="http://www.w3.org/2000/svg" xmlns:svg="http://www.w3.org/2000/svg" id="svg17" width="110" height="104" version="1.1" viewBox="0 0 100 104"><metadata id="metadata23"/><title id="title2">Discourse</title><g id="discourse-logo-large" style="fill:none;fill-rule:nonzero"><path id="path4" d="M 51.87,0 C 23.71,0 0,22.83 0,51 v 52.81 l 51.86,-0.05 c 28.16,0 51,-23.71 51,-51.87 C 102.86,23.73 80,0 51.87,0 Z" style="fill:#000"/><path id="path6" d="M 52.37,19.74 C 41.231994,19.746574 30.918903,25.612586 25.220442,35.182474 19.521981,44.752362 19.278701,56.614519 24.58,66.41 l -5.72,18.4 20.54,-4.64 c 11.761999,5.29926 25.564068,2.919176 34.871865,-6.013445 9.307796,-8.93262 12.253401,-22.625148 7.442269,-34.595102 C 76.903002,27.5915 65.300649,19.746291 52.4,19.74 Z" style="fill:#fff9ae"/><path id="path8" d="M 77.087428,70.913862 C 68.108734,82.240467 52.589535,86.031436 39.4,80.12 l -20.54,4.7 20.91,-2.47 C 53.631888,90.470188 71.380186,86.897437 81.020511,74.046229 90.660836,61.195021 89.1246,43.155992 77.45,32.12 c 8.765425,11.492443 8.616122,27.467257 -0.362572,38.793862 z" style="fill:#00aeef"/><path id="path10" d="M 75.319123,64.908843 C 67.572355,77.110651 52.534419,82.501361 38.8,78 L 18.86,84.82 39.4,80.17 C 54.028518,86.777889 71.286932,81.36883 79.527044,67.593552 87.767156,53.818273 84.370682,36.05385 71.63,26.29 c 9.916774,10.514472 11.43589,26.417036 3.689123,38.618843 z" style="fill:#00a94f"/><path id="path12" d="M 26.47,67.11 C 20.745283,53.310799 25.463025,37.387872 37.780888,28.934436 50.098751,20.481001 66.652975,21.80552 77.47,32.11 67.451823,18.962909 48.996327,15.753808 35.128244,24.74748 21.26016,33.741151 16.662498,51.900588 24.58,66.41 l -5.72,18.4 z" style="fill:#f15d22"/><path id="path14" d="M 24.58,66.41 C 17.476718,53.289474 20.514794,36.988722 31.867693,27.307993 43.220591,17.627265 59.796608,17.202886 71.63,26.29 60.27868,14.337517 41.648141,13.114343 28.831535,23.4801 16.014929,33.845857 13.315348,52.32031 22.63,65.92 l -3.76,18.9 z" style="fill:#d0232b"/></g></svg>