<svg xmlns="http://www.w3.org/2000/svg" width="515.2" height="139.7" viewBox="0 0 515.2 139.7"><style>.st16{fill:#e0f2f3}.st32{stroke-miterlimit:10;fill:none;stroke:#e0f2f3}</style><g id="stuffs"><path d="M4.6 52.3l50.8-34.9 53.9 39.3-53.9 2.5-9.6 29.3 42 26.6 34.6-30.3 64.4 18.5-55.2 31.5 28-126.2-48.2 12.2 74 38.4 33.2-50.6 53.5 99L205 82.5l83.1-70.7L325.9 39 293 62.1l29.4 56.6 23.7-47.4h73.6L408 8.6l-50.7 5.3 48.8 108.8L465 94.6 453.3 39l24.4-18.2 32.8 33.6" class="st32"/><circle cx="4.6" cy="52.1" r="4.6" class="st16"/><circle cx="55.4" cy="17.8" r="4.6" class="st16"/><circle cx="109.5" cy="56.7" r="4.6" class="st16"/><circle cx="55.4" cy="59.1" r="4.6" class="st16"/><circle cx="45.4" cy="88.5" r="4.6" class="st16"/><circle cx="87.5" cy="115.1" r="4.6" class="st16"/><circle cx="122.7" cy="84.8" r="4.6" class="st16"/><circle cx="111.5" cy="20.8" r="4.6" class="st16"/><circle cx="159.9" cy="4.6" r="4.6" class="st16"/><circle cx="131.9" cy="135.1" r="4.6" class="st16"/><circle cx="185.7" cy="103" r="4.6" class="st16"/><circle cx="185.7" cy="59.1" r="4.6" class="st16"/><circle cx="218.6" cy="4.6" r="4.6" class="st16"/><circle cx="205" cy="82.1" r="4.6" class="st16"/><circle cx="272" cy="107.6" r="4.6" class="st16"/><circle cx="288.1" cy="13.3" r="4.6" class="st16"/><circle cx="325.8" cy="38.8" r="4.6" class="st16"/><circle cx="292.8" cy="62" r="4.6" class="st16"/><circle cx="323.2" cy="119.8" r="4.6" class="st16"/><circle cx="346.9" cy="71.3" r="4.6" class="st16"/><circle cx="357.7" cy="13.3" r="4.6" class="st16"/><circle cx="406.9" cy="4.6" r="4.6" class="st16"/><circle cx="419.7" cy="71.3" r="4.6" class="st16"/><circle cx="406.7" cy="123.8" r="4.6" class="st16"/><circle cx="465" cy="94.6" r="4.6" class="st16"/><circle cx="453.3" cy="38.8" r="4.6" class="st16"/><circle cx="477.7" cy="20.8" r="4.6" class="st16"/><circle cx="510.5" cy="54.6" r="4.6" class="st16"/></g></svg>