<svg xmlns="http://www.w3.org/2000/svg" id="mermaid-1528279356288" width="100%" height="100%" style="max-width:850px" viewBox="-50 -10 850 393"><style>#mermaid-1528279356288 .actor{stroke:#ccf;fill:#ececff}#mermaid-1528279356288 text.actor{fill:#000;stroke:none}#mermaid-1528279356288 .actor-line{stroke:gray}#mermaid-1528279356288 .messageLine0{marker-end:&apos;url(#arrowhead)&apos;}#mermaid-1528279356288 .messageLine0,#mermaid-1528279356288 .messageLine1{stroke-width:1.5;stroke-dasharray:&apos;2 2&apos;;stroke:#333}#mermaid-1528279356288 #arrowhead{fill:#333}#mermaid-1528279356288 #crosshead path{fill:#333!important;stroke:#333!important}#mermaid-1528279356288 .messageText{fill:#333;stroke:none}#mermaid-1528279356288 .note{stroke:#aa3;fill:#fff5ad}#mermaid-1528279356288 .noteText{fill:#000;stroke:none;font-family:&apos;trebuchet ms&apos;,verdana,arial;font-size:14px}</style><style>#mermaid-1528279356288{color:rgba(0,0,0,.65);font:400 14px/21px &quot;Monospaced Number&quot;,&quot;Chinese Quote&quot;,-apple-system,system-ui,&quot;Segoe UI&quot;,Roboto,&quot;PingFang SC&quot;,&quot;Hiragino Sans GB&quot;,&quot;Microsoft YaHei&quot;,&quot;Helvetica Neue&quot;,Helvetica,Arial,sans-serif}</style><g><line id="actor0" x1="75" x2="75" y1="5" y2="382" stroke="#999" stroke-width=".5" class="actor-line"/><rect width="150" height="65" x="0" y="0" fill="#eaeaea" stroke="#666" class="actor" rx="3" ry="3"/><text x="75" y="32.5" alignment-baseline="central" class="actor" dominant-baseline="central" style="text-anchor:middle"><tspan x="75" dy="0">Congress fund</tspan></text></g><g><line id="actor1" x1="275" x2="275" y1="5" y2="382" stroke="#999" stroke-width=".5" class="actor-line"/><rect width="150" height="65" x="200" y="0" fill="#eaeaea" stroke="#666" class="actor" rx="3" ry="3"/><text x="275" y="32.5" alignment-baseline="central" class="actor" dominant-baseline="central" style="text-anchor:middle"><tspan x="275" dy="0">Gitcoin fund</tspan></text></g><g><line id="actor2" x1="475" x2="475" y1="5" y2="382" stroke="#999" stroke-width=".5" class="actor-line"/><rect width="150" height="65" x="400" y="0" fill="#eaeaea" stroke="#666" class="actor" rx="3" ry="3"/><text x="475" y="32.5" alignment-baseline="central" class="actor" dominant-baseline="central" style="text-anchor:middle"><tspan x="475" dy="0">Team member</tspan></text></g><g><line id="actor3" x1="675" x2="675" y1="5" y2="382" stroke="#999" stroke-width=".5" class="actor-line"/><rect width="150" height="65" x="600" y="0" fill="#eaeaea" stroke="#666" class="actor" rx="3" ry="3"/><text x="675" y="32.5" alignment-baseline="central" class="actor" dominant-baseline="central" style="text-anchor:middle"><tspan x="675" dy="0">Issue fund</tspan></text></g><defs><marker id="arrowhead" markerHeight="4" markerWidth="6" orient="auto" refX="5" refY="2"><path d="M 0,0 V 4 L6,2 Z"/></marker></defs><defs><marker id="crosshead" markerHeight="8" markerWidth="15" orient="auto" refX="16" refY="4"><path fill="#000" stroke="#000" stroke-width="1" d="M 9,2 V 6 L16,4 Z" style="stroke-dasharray:0,0"/><path fill="none" stroke="#000" stroke-width="1" d="M 0,1 L 6,7 M 6,1 L 0,7" style="stroke-dasharray:0,0"/></marker></defs><g><text x="175" y="93" class="messageText" style="text-anchor:middle">ETH allocated to gitcoin at current sprint</text><line x1="75" x2="275" y1="100" y2="100" stroke="#000" stroke-width="2" marker-end="url(#arrowhead)" class="messageLine0" style="fill:none"/></g><g><rect width="250" height="36" x="50" y="110" fill="#EDF2AE" stroke="#666" class="note" rx="0" ry="0"/><text x="46" y="134" fill="#000" class="noteText"><tspan x="66" fill="#000">Calculate sprint ETH amount</tspan></text></g><g><text x="375" y="174" class="messageText" style="text-anchor:middle">% of ETH sprint amount according to prepared gitcoin issues</text><line x1="275" x2="475" y1="181" y2="181" stroke="#000" stroke-width="2" marker-end="url(#arrowhead)" class="messageLine0" style="fill:none"/></g><g><rect width="250" height="36" x="250" y="191" fill="#EDF2AE" stroke="#666" class="note" rx="0" ry="0"/><text x="246" y="215" fill="#000" class="noteText"><tspan x="266" fill="#000">Calculate weighting factors for each member</tspan></text></g><g><text x="575" y="255" class="messageText" style="text-anchor:middle">Fund issue as member want</text><line x1="475" x2="675" y1="262" y2="262" stroke="#000" stroke-width="2" marker-end="url(#arrowhead)" class="messageLine0" style="fill:none"/></g><g><text x="375" y="290" class="messageText" style="text-anchor:middle">Accumulate all funded issues and make forecast</text><line x1="675" x2="75" y1="297" y2="297" stroke="#000" stroke-width="2" marker-end="url(#arrowhead)" class="messageLine1" style="stroke-dasharray:3,3;fill:none"/></g><g><rect width="150" height="65" x="0" y="317" fill="#eaeaea" stroke="#666" class="actor" rx="3" ry="3"/><text x="75" y="349.5" alignment-baseline="central" class="actor" dominant-baseline="central" style="text-anchor:middle"><tspan x="75" dy="0">Congress fund</tspan></text></g><g><rect width="150" height="65" x="200" y="317" fill="#eaeaea" stroke="#666" class="actor" rx="3" ry="3"/><text x="275" y="349.5" alignment-baseline="central" class="actor" dominant-baseline="central" style="text-anchor:middle"><tspan x="275" dy="0">Gitcoin fund</tspan></text></g><g><rect width="150" height="65" x="400" y="317" fill="#eaeaea" stroke="#666" class="actor" rx="3" ry="3"/><text x="475" y="349.5" alignment-baseline="central" class="actor" dominant-baseline="central" style="text-anchor:middle"><tspan x="475" dy="0">Team member</tspan></text></g><g><rect width="150" height="65" x="600" y="317" fill="#eaeaea" stroke="#666" class="actor" rx="3" ry="3"/><text x="675" y="349.5" alignment-baseline="central" class="actor" dominant-baseline="central" style="text-anchor:middle"><tspan x="675" dy="0">Issue fund</tspan></text></g></svg>