<svg xmlns="http://www.w3.org/2000/svg" viewBox="0 0 50 50"><path d="M25 3c-2.363 0-4.434 1.39-5.406 3.438 1.605-.325 3.402-.5 5.406-.5 2.008 0 3.8.175 5.406.5A5.977 5.977 0 0 0 25 3zm0 4.938c-5.805 0-12.063 1.53-12.063 7.062 0 1.195.165 2.219.47 3.125.804.078 1.624.324 2.624.594C17.938 19.234 20.821 20 25 20c3.805 0 6.523-.578 8.5-1 1.148-.246 2.078-.43 2.969-.469.402-.992.593-2.164.593-3.531 0-5.531-6.257-7.063-12.062-7.063zM3 8c-.55 0-1 .45-1 1 0 5.77 1.313 9.914 3.906 12.344 1.547 1.445 3.184 1.922 4.188 2.062-.086 1.067-.094 2.367-.094 4.063 0 .164.027.332.031.5H2A1.04 1.04 0 0 0 .969 29 1.04 1.04 0 0 0 2 30.031h8.156a21.136 21.136 0 0 0 1.375 5.282C9 35.917 2 38.25 2 46a1 1 0 1 0 2 0c0-6.875 6.758-8.57 8.375-8.875 2.277 4.352 6.168 7.813 11.625 8.719V29a1 1 0 1 1 2 0v16.844c5.457-.907 9.379-4.336 11.656-8.688C39.363 37.488 46 39.2 46 46c0 .555.445 1 1 1 .555 0 1-.445 1-1 0-7.75-7-10.082-9.531-10.688a21.136 21.136 0 0 0 1.375-5.28H48A1.04 1.04 0 0 0 49.031 29 1.04 1.04 0 0 0 48 27.969h-8.031c.004-.168.031-.336.031-.5 0-1.66-.008-2.992-.156-4.063 1-.133 2.676-.59 4.25-2.062C46.687 18.914 48 14.77 48 9a1 1 0 0 0-1-1 .949.949 0 0 0-.375.094c-.121.05-.254.097-.344.187-.18.18-.281.442-.281.719 0 5.086-1.102 8.828-3.219 10.844-1.32 1.258-2.699 1.535-3.343 1.593-.145.012-.188.032-.25.032-.473-.633-1.227-.969-2.407-.969-.781 0-1.695.215-2.875.469C31.844 21.406 29.016 22 25 22c-4.445 0-7.492-.832-9.5-1.375-1.148-.313-1.953-.531-2.688-.531-1.253 0-1.96.39-2.343 1.312-.66-.074-1.934-.328-3.188-1.5C5.137 17.898 4 14.121 4 9c0-.55-.45-1-1-1z" stroke="#e90000" stroke-width="1.2"/></svg>